<?xml version="1.0" encoding="UTF-8" standalone="no"?>
<!-- Created with Inkscape (http://www.inkscape.org/) -->

<svg
   version="1.1"
   id="svg1"
   width="1489.6"
   height="603.06665"
   viewBox="0 0 1489.6 603.06665"
   xmlns="http://www.w3.org/2000/svg"
   xmlns:svg="http://www.w3.org/2000/svg">
  <defs
     id="defs1">
    <clipPath
       clipPathUnits="userSpaceOnUse"
       id="clipPath10">
      <path
         d="M 0,452.3 H 1117.2 V 0 H 0 Z"
         transform="translate(-1047,-154.39961)"
         id="path10" />
    </clipPath>
  </defs>
  <g
     id="layer-MC0">
    <path
       id="path1"
       d="m 0,0 226.7,-225.6 69.5,69.5 L 139.1,0 Z"
       style="fill:#007167;fill-opacity:1;fill-rule:nonzero;stroke:none"
       transform="matrix(1.3333333,0,0,-1.3333333,0,-5.3333333e-4)" />
    <path
       id="path2"
       d="m 395.5,353.9 h 289.901 v 98.401 H 395.5 Z"
       style="fill:#002e6d;fill-opacity:1;fill-rule:nonzero;stroke:none"
       transform="matrix(1.3333333,0,0,-1.3333333,0,603.06667)" />
    <path
       id="path3"
       d="M 395.5,275 H 685.4 V 176.6 H 395.5 Z"
       style="fill:#002e6d;fill-opacity:1;fill-rule:nonzero;stroke:none"
       transform="matrix(1.3333333,0,0,-1.3333333,0,603.06667)" />
    <path
       id="path4"
       d="M 395.5,0 H 685.401 V 98.4 H 395.5 Z"
       style="fill:#00c4b3;fill-opacity:1;fill-rule:nonzero;stroke:none"
       transform="matrix(1.3333333,0,0,-1.3333333,0,603.06667)" />
    <path
       id="path5"
       d="m 0,0 h 139.1 l 226.7,226.7 -69.6,69.5 z"
       style="fill:#00c4b3;fill-opacity:1;fill-rule:nonzero;stroke:none"
       transform="matrix(1.3333333,0,0,-1.3333333,0,603.06667)" />
    <path
       id="path8"
       d="m 0,0 -84.8,-54.3 15.3,-15.2 z"
       style="fill:#00524c;fill-opacity:1;fill-rule:nonzero;stroke:none"
       transform="matrix(1.3333333,0,0,-1.3333333,394.9336,208.13347)" />
    <path
       id="path9"
       d="m 0,0 c -23,-33.8 -61.8,-56 -105.7,-56 -70.6,0 -127.8,57.2 -127.8,127.8 0,70.6 57.2,127.7 127.8,127.7 43.7,0 82.3,-21.899 105.3,-55.399 L 69.8,214.3 c -41.5,51 -104.7,83.6 -175.5,83.6 -124.9,0 -226.2,-101.299 -226.2,-226.2 0,-124.899 101.3,-226.099 226.2,-226.099 71.1,0 134.5,32.799 176,84.099 z"
       style="fill:#002e6d;fill-opacity:1;fill-rule:nonzero;stroke:none"
       transform="matrix(1.3333333,0,0,-1.3333333,1396,397.20053)"
       clip-path="url(#clipPath10)" />
  </g>
</svg>
