<?xml version="1.0" encoding="utf-8"?>
<!-- Generator: Adobe Illustrator 24.0.1, SVG Export Plug-In . SVG Version: 6.00 Build 0)  -->
<svg version="1.1" id="Capa_1" xmlns="http://www.w3.org/2000/svg" xmlns:xlink="http://www.w3.org/1999/xlink" x="0px" y="0px"
	 viewBox="0 0 1200 612" style="enable-background:new 0 0 1200 612;" xml:space="preserve">
<style type="text/css">
	.st0{fill:#5B6670;}
	.st1{fill:#323E48;}
	.st2{fill:#FFFFFF;}
	.st3{fill:#A2A9AD;}
</style>
<g>
	<polygon class="st0" points="49.9,81.1 344.3,375.6 413.9,306 189,81.1 	"/>
	<polygon class="st1" points="259.5,290.8 344.3,375.6 413.9,306 344.3,236.4 	"/>
	<rect x="430.9" y="81.1" class="st2" width="289.9" height="98.4"/>
	<rect x="430.9" y="257.7" class="st2" width="289.9" height="98.4"/>
	<rect x="430.9" y="434.3" class="st3" width="289.9" height="98.4"/>
	<path class="st2" d="M1081,376.9c-22.7,33.5-61.2,55.6-104.8,55.6c-69.9,0-126.5-56.6-126.5-126.5s56.6-126.5,126.5-126.5
		c43.6,0,82,22,104.8,55.6l70.9-70.9c-41.4-51.2-104.7-83.9-175.6-83.9c-124.7,0-225.8,101.1-225.8,225.8s101.1,225.8,225.8,225.8
		c71,0,134.3-32.8,175.6-83.9L1081,376.9z"/>
	<polygon class="st3" points="187.2,532.6 413.9,306 344.3,236.4 48.1,532.6 	"/>
</g>
</svg>
