<?xml version="1.0" encoding="utf-8"?>
<!-- Generator: Adobe Illustrator 24.0.1, SVG Export Plug-In . SVG Version: 6.00 Build 0)  -->
<svg version="1.1" id="Capa_1" xmlns="http://www.w3.org/2000/svg" xmlns:xlink="http://www.w3.org/1999/xlink" x="0px" y="0px"
	 viewBox="0 0 1200 612" style="enable-background:new 0 0 1200 612;" xml:space="preserve">
<style type="text/css">
	.st0{fill:#1A1A1A;}
</style>
<g>
	<path class="st0" d="M431.1,181.7h291.5v-101H431.1V181.7z M434.2,83.8h285.2v94.7H434.2V83.8z"/>
	<path class="st0" d="M431.1,357.3h291.5v-101H431.1V357.3z M434.2,259.4h285.2v94.7H434.2V259.4z"/>
	<path class="st0" d="M431.1,532.9h291.5v-101H431.1V532.9z M434.2,435.1h285.2v94.7H434.2V435.1z"/>
	<path class="st0" d="M1078,375.6c-23.2,34.2-61.7,54.6-102.9,54.6c-68.5,0-124.2-55.7-124.2-124.2s55.7-124.2,124.2-124.2
		c41.2,0,79.7,20.4,102.9,54.6l1.1,1.6l72.9-72.9l-0.9-1.1c-43.2-53.4-107.3-84.1-175.9-84.1C850.4,79.8,749,181.2,749,305.9
		S850.4,532,975.1,532c68.6,0,132.7-30.6,175.9-84.1l0.9-1.1L1079,374L1078,375.6z M1147.7,447.1c-42.6,52-105.4,81.8-172.6,81.8
		c-123,0-223-100-223-223s100-223,223-223c67.2,0,130,29.8,172.6,81.8l-68.2,68.2c-23.9-34.1-62.8-54.4-104.4-54.4
		c-70.2,0-127.4,57.1-127.4,127.4s57.1,127.4,127.4,127.4c41.7,0,80.5-20.3,104.4-54.4L1147.7,447.1z"/>
	<path class="st0" d="M346.5,234.5L346.5,234.5L192.7,80.7H49.9l209.8,209.8l0,0l15.4,15.4l-227,227h142.8l155.6-155.6l0,0
		l71.4-71.4l0,0l0,0L346.5,234.5z M279.5,305.9l67-67l67,67l-67,67L279.5,305.9z M277.3,303.7L264.7,291l70.5-45.2L277.3,303.7z
		 M57.4,83.8h134L344,236.5l-81.6,52.3L57.4,83.8z M189.6,529.8h-134l221.6-221.6l67,67L189.6,529.8z"/>
</g>
</svg>
