<?xml version="1.0" encoding="UTF-8" standalone="no"?>
<!-- Created with Inkscape (http://www.inkscape.org/) -->

<svg
   version="1.1"
   id="svg1"
   width="1488.6667"
   height="603.06665"
   viewBox="0 0 1488.6667 603.06665"
   xmlns="http://www.w3.org/2000/svg"
   xmlns:svg="http://www.w3.org/2000/svg">
  <defs
     id="defs1">
    <clipPath
       clipPathUnits="userSpaceOnUse"
       id="clipPath7">
      <path
         d="M 0,452.3 H 1116.5 V 0 H 0 Z"
         transform="translate(-138.2715,-2)"
         id="path7" />
    </clipPath>
    <clipPath
       clipPathUnits="userSpaceOnUse"
       id="clipPath9">
      <path
         d="M 0,452.3 H 1116.5 V 0 H 0 Z"
         transform="translate(-1113.8115,-83.895502)"
         id="path9" />
    </clipPath>
  </defs>
  <g
     id="layer-MC0">
    <path
       id="path3"
       d="m 395.5,353.9 h 289.901 v 98.4 H 395.5 Z m 2,96.4 H 683.4 V 355.9 H 397.5 Z"
       style="fill:#000000;fill-opacity:1;fill-rule:nonzero;stroke:none"
       transform="matrix(1.3333333,0,0,-1.3333333,0,603.06667)" />
    <path
       id="path4"
       d="M 397.5,273 H 683.4 V 178.6 H 397.5 Z m -2,-96.4 H 685.4 V 275 H 395.5 Z"
       style="fill:#000000;fill-opacity:1;fill-rule:nonzero;stroke:none"
       transform="matrix(1.3333333,0,0,-1.3333333,0,603.06667)" />
    <path
       id="path5"
       d="M 395.5,0 H 685.401 V 98.401 H 395.5 Z m 2,96.401 H 683.4 V 2 H 397.5 Z"
       style="fill:#000000;fill-opacity:1;fill-rule:nonzero;stroke:none"
       transform="matrix(1.3333333,0,0,-1.3333333,0,603.06667)" />
    <path
       id="path6"
       d="m 0,0 h -133.443 l 291.358,291.358 c 0.005,0.005 0.011,0.009 0.016,0.013 l 66.768,-66.672 z m 84.962,230.936 c 0.004,0.004 0.009,0.009 0.013,0.014 l -8.667,8.611 79.972,52.991 -66.455,-66.456 z M 0.004,448.3 155.093,294.152 74.827,241.024 -133.426,448.3 Z M 157.905,294.177 0.829,450.3 h -139.1 L 88.41,224.682 -138.271,-2 h 139.1 l 226.699,226.7 -69.599,69.5 z"
       style="fill:#000000;fill-opacity:1;fill-rule:nonzero;stroke:none"
       transform="matrix(1.3333333,0,0,-1.3333333,184.362,600.4)"
       clip-path="url(#clipPath7)" />
    <path
       id="path8"
       d="m 0,0 c -20.323,-24.77 -46.17,-45.243 -74.853,-59.276 -30.678,-15.009 -63.669,-22.62 -98.058,-22.62 -30.212,0 -59.52,5.927 -87.11,17.615 -26.649,11.29 -50.583,27.452 -71.138,48.039 -20.555,20.587 -36.693,44.558 -47.965,71.25 -11.67,27.633 -17.588,56.987 -17.588,87.246 0,30.26 5.918,59.615 17.588,87.248 11.272,26.691 27.41,50.663 47.965,71.249 20.555,20.587 44.489,36.749 71.138,48.039 27.59,11.688 56.898,17.614 87.11,17.614 67.278,0 130.193,-29.822 172.91,-81.893 l -66.41,-66.512 c -24.387,33.862 -63.586,54.005 -105.347,54.005 -27.717,0 -54.159,-8.616 -76.469,-24.918 -21.854,-15.97 -37.946,-37.906 -46.534,-63.435 l -0.054,-0.166 -0.032,-0.097 c -0.29,-0.869 -0.575,-1.741 -0.846,-2.617 -3.861,-12.39 -5.819,-25.315 -5.819,-38.417 0,-1.105 0.016,-2.257 0.046,-3.422 0.854,-33.957 14.726,-65.745 39.06,-89.51 24.377,-23.807 56.569,-36.917 90.648,-36.917 41.817,0 81.044,20.183 105.427,54.116 z m -171.758,14.505 c -69.46,0 -125.972,55.434 -127.709,124.476 -0.028,1.122 -0.045,2.246 -0.045,3.373 0,13.176 2.007,25.88 5.728,37.823 0.267,0.864 0.549,1.722 0.835,2.578 0.028,0.084 0.054,0.17 0.083,0.255 17.012,50.57 64.804,86.994 121.108,86.994 43.563,0 82.025,-21.809 105.084,-55.1 l 69.362,69.471 c -41.4,51.279 -104.7,84.029 -175.599,84.029 -124.7,0 -225.801,-101.256 -225.801,-226.15 0,-124.893 101.101,-226.15 225.801,-226.15 71,0 134.3,32.851 175.599,84.031 L -66.594,69.72 C -89.644,36.364 -128.145,14.505 -171.758,14.505"
       style="fill:#000000;fill-opacity:1;fill-rule:nonzero;stroke:none"
       transform="matrix(1.3333333,0,0,-1.3333333,1485.082,491.206)"
       clip-path="url(#clipPath9)" />
  </g>
</svg>
