<?xml version="1.0" encoding="utf-8"?>
<!-- Generator: Adobe Illustrator 24.0.1, SVG Export Plug-In . SVG Version: 6.00 Build 0)  -->
<svg version="1.1" id="Capa_1" xmlns="http://www.w3.org/2000/svg" xmlns:xlink="http://www.w3.org/1999/xlink" x="0px" y="0px"
	 viewBox="0 0 1103.9 453" style="enable-background:new 0 0 1103.9 453;" xml:space="preserve">
<style type="text/css">
	.st0{fill:#1A1A1A;}
</style>
<g>
	<path class="st0" d="M383,101.8h291.5V0.8H383V101.8z M386.1,3.9h285.2v94.7H386.1V3.9z"/>
	<path class="st0" d="M383,277.4h291.5v-101H383V277.4z M386.1,179.5h285.2v94.7H386.1V179.5z"/>
	<path class="st0" d="M383,453h291.5V352H383V453z M386.1,355.2h285.2v94.7H386.1V355.2z"/>
	<path class="st0" d="M1029.9,295.7c-23.2,34.2-61.7,54.6-102.9,54.6c-68.5,0-124.2-55.7-124.2-124.2S858.5,101.9,927,101.9
		c41.2,0,79.7,20.4,102.9,54.6l1.1,1.6l72.9-72.9l-0.9-1.1C1059.8,30.7,995.7,0,927.1,0C802.3-0.1,700.9,101.3,700.9,226
		S802.3,452.1,927,452.1c68.6,0,132.7-30.6,175.9-84.1l0.9-1.1l-72.9-72.8L1029.9,295.7z M1099.6,367.2
		C1057,419.2,994.2,449,927,449c-123,0-223-100-223-223S804,3,927,3c67.2,0,130,29.8,172.6,81.8l-68.2,68.2
		c-23.9-34.1-62.8-54.4-104.4-54.4c-70.2,0-127.4,57.1-127.4,127.4S856.7,353.4,927,353.4c41.7,0,80.5-20.3,104.4-54.4L1099.6,367.2
		z"/>
	<path class="st0" d="M298.4,154.6L298.4,154.6L144.6,0.8H1.8l209.8,209.8l0,0L227,226L0,453h142.8l155.6-155.6l0,0l71.4-71.4l0,0
		l0,0L298.4,154.6z M231.4,226l67-67l67,67l-67,67L231.4,226z M229.2,223.8l-12.6-12.7l70.5-45.2L229.2,223.8z M9.3,3.9h134
		l152.6,152.7l-81.6,52.3L9.3,3.9z M141.5,449.9H7.5l221.6-221.6l67,67L141.5,449.9z"/>
</g>
</svg>
