<?xml version="1.0" encoding="utf-8"?>
<!-- Generator: Adobe Illustrator 24.0.1, SVG Export Plug-In . SVG Version: 6.00 Build 0)  -->
<svg version="1.1" id="Capa_1" xmlns="http://www.w3.org/2000/svg" xmlns:xlink="http://www.w3.org/1999/xlink" x="0px" y="0px"
	 viewBox="0 0 1103.8 452.3" style="enable-background:new 0 0 1103.8 452.3;" xml:space="preserve">
<style type="text/css">
	.st0{fill:#002E6D;}
</style>
<g>
	<polygon class="st0" points="225.3,201.5 296.2,156.1 140.9,0.8 1.8,0.8 211.4,210.4 	"/>
	<rect x="382.8" y="0.8" class="st0" width="289.9" height="98.4"/>
	<rect x="382.8" y="177.3" class="st0" width="289.9" height="98.4"/>
	<rect x="382.8" y="353.9" class="st0" width="289.9" height="98.4"/>
	<path class="st0" d="M1032.9,296.6c-22.7,33.5-61.2,55.6-104.8,55.6c-69.9,0-126.5-56.6-126.5-126.5S858.2,99.2,928.1,99.2
		c43.6,0,82,22,104.8,55.6l70.9-70.9C1062.4,32.7,999.1,0,928.2,0C803.5,0,702.4,101.1,702.4,225.8s101.1,225.8,225.8,225.8
		c71,0,134.3-32.8,175.6-83.9L1032.9,296.6z"/>
	<polygon class="st0" points="139.1,452.3 365.8,225.6 296.2,156.1 0,452.3 	"/>
</g>
</svg>
